<svg width="16" height="16" viewBox="0 0 16 16" fill="none" xmlns="http://www.w3.org/2000/svg">
<path fill-rule="evenodd" clip-rule="evenodd" d="M3 2.5C3 2.22386 3.22386 2 3.5 2H6.5C6.77614 2 7 2.22386 7 2.5V4H9V2.5C9 2.22386 9.22386 2 9.5 2H12.5C12.7761 2 13 2.22386 13 2.5V4H14C14.5523 4 15 4.44772 15 5V13C15 13.5523 14.5523 14 14 14H2C1.44772 14 1 13.5523 1 13V5C1 4.44772 1.44772 4 2 4H3V2.5Z" fill="#22AA55"/>
<path d="M4.5 9.5L8 13L11.5 9.5C12.3284 8.67157 12.3284 7.32843 11.5 6.5C10.6716 5.67157 9.32843 5.67157 8.5 6.5L8 7L7.5 6.5C6.67157 5.67157 5.32843 5.67157 4.5 6.5C3.67157 7.32843 3.67157 8.67157 4.5 9.5Z" fill="#AAEEC4"/>
<path d="M5 10L8 13L11 10L8 7L5 10Z" fill="#D4F6E1"/>
</svg>
