<svg width="288" height="120" viewBox="0 0 288 120" fill="none" xmlns="http://www.w3.org/2000/svg">
<g clip-path="url(#clip0_9_1028)">
<path fill-rule="evenodd" clip-rule="evenodd" d="M10.666 30.6667C10.666 29.1939 11.8599 28 13.3327 28H29.3327C30.8054 28 31.9993 29.1939 31.9993 30.6667V38.6665H42.666V30.6667C42.666 29.1939 43.8599 28 45.3327 28H61.3327C62.8054 28 63.9993 29.1939 63.9993 30.6667V38.6665H69.3333C72.2789 38.6665 74.6667 41.0543 74.6667 43.9998V86.6665C74.6667 89.612 72.2789 91.9998 69.3333 91.9998H5.33333C2.38781 91.9998 0 89.612 0 86.6665V43.9998C0 41.0543 2.38781 38.6665 5.33333 38.6665H10.666V30.6667Z" fill="#22AA55"/>
<path d="M18.666 68L37.3327 86.6667L55.9993 68C60.4176 63.5817 60.4176 56.4183 55.9993 52C51.5811 47.5817 44.4176 47.5817 39.9993 52L37.3327 54.6667L34.666 52C30.2477 47.5817 23.0843 47.5817 18.666 52C14.2477 56.4183 14.2477 63.5817 18.666 68Z" fill="#AAEEC4"/>
<path d="M21.333 70.6665L37.333 86.6665L53.333 70.6665L37.333 54.6665L21.333 70.6665Z" fill="#D4F6E1"/>
</g>
<path d="M140.3 25.5L150.8 36L161.3 25.5C163.785 23.0147 163.785 18.9853 161.3 16.5C158.815 14.0147 154.785 14.0147 152.3 16.5L150.8 18L149.3 16.5C146.815 14.0147 142.785 14.0147 140.3 16.5C137.815 18.9853 137.815 23.0147 140.3 25.5Z" fill="#2AD56A"/>
<path d="M141.8 27L150.8 36L159.8 27L150.8 18L141.8 27Z" fill="#22AA55"/>
<path fill-rule="evenodd" clip-rule="evenodd" d="M108.928 86.848C111.744 88.256 114.88 88.96 118.336 88.96C122.496 88.96 126.24 87.936 129.568 85.888C132.96 83.776 135.616 80.928 137.536 77.344C139.456 73.76 140.416 69.728 140.416 65.248C140.416 60.768 139.456 56.736 137.536 53.152C135.616 49.568 132.96 46.72 129.568 44.608C126.24 42.496 122.496 41.44 118.336 41.44C114.944 41.44 111.84 42.176 109.024 43.648C106.616 44.88 104.6 46.553 102.976 48.667V42.4H94.3361V107.104H102.976V81.7647C104.548 83.8717 106.532 85.5661 108.928 86.848ZM124.48 78.784C122.304 80.128 119.776 80.8 116.896 80.8C114.08 80.8 111.552 80.128 109.312 78.784C107.136 77.44 105.44 75.616 104.224 73.312C103.072 70.944 102.496 68.256 102.496 65.248C102.496 62.176 103.104 59.456 104.32 57.088C105.536 54.72 107.232 52.896 109.408 51.616C111.584 50.272 114.112 49.6 116.992 49.6C119.808 49.6 122.304 50.272 124.48 51.616C126.656 52.896 128.384 54.72 129.664 57.088C130.944 59.456 131.584 62.144 131.584 65.152C131.584 68.224 130.944 70.944 129.664 73.312C128.384 75.616 126.656 77.44 124.48 78.784Z" fill="#22AA55"/>
<path d="M146.467 42.4V88H155.107V50.2721L171.008 50.272V88H179.648V50.272H190.88V42.4H179.648V23.296H171.008V42.4H146.467Z" fill="#22AA55"/>
<path d="M202.737 85.792C206.385 87.904 210.449 88.96 214.929 88.96C218.449 88.96 221.713 88.288 224.721 86.944C227.793 85.6 230.385 83.712 232.497 81.28L226.833 75.52C225.361 77.184 223.601 78.464 221.553 79.36C219.569 80.192 217.361 80.608 214.929 80.608C212.049 80.608 209.489 79.936 207.249 78.592C205.009 77.248 203.249 75.424 201.969 73.12C200.689 70.816 200.049 68.16 200.049 65.152C200.049 62.144 200.689 59.488 201.969 57.184C203.249 54.88 205.009 53.088 207.249 51.808C209.489 50.464 212.049 49.792 214.929 49.792C217.361 49.792 219.569 50.24 221.553 51.136C223.601 51.968 225.329 53.216 226.737 54.88L232.497 49.12C230.321 46.624 227.729 44.736 224.721 43.456C221.713 42.112 218.449 41.44 214.929 41.44C210.449 41.44 206.385 42.496 202.737 44.608C199.153 46.656 196.305 49.472 194.193 53.056C192.145 56.64 191.121 60.672 191.121 65.152C191.121 69.568 192.145 73.6 194.193 77.248C196.305 80.832 199.153 83.68 202.737 85.792Z" fill="#22AA55"/>
<path d="M269.482 61.408V88H278.122V59.68C278.122 56.096 277.354 52.928 275.818 50.176C274.282 47.424 272.17 45.28 269.482 43.744C266.858 42.208 263.818 41.44 260.362 41.44C256.906 41.44 253.802 42.24 251.05 43.84C248.977 44.997 247.249 46.4809 245.866 48.2915V19.456H237.226V88H245.866V61.408C245.866 59.104 246.378 57.056 247.402 55.264C248.426 53.472 249.834 52.064 251.626 51.04C253.418 50.016 255.466 49.504 257.77 49.504C261.226 49.504 264.042 50.624 266.218 52.864C268.394 55.104 269.482 57.952 269.482 61.408Z" fill="#22AA55"/>
<defs>
<clipPath id="clip0_9_1028">
<rect width="74.6667" height="64" fill="white" transform="translate(0 28)"/>
</clipPath>
</defs>
</svg>
