<svg width="185" height="96" viewBox="0 0 185 96" fill="none" xmlns="http://www.w3.org/2000/svg">
<path d="M46.2998 13.5L56.7998 24L67.2998 13.5C69.7851 11.0147 69.7851 6.98528 67.2998 4.5C64.8145 2.01472 60.7851 2.01472 58.2998 4.5L56.7998 6L55.2998 4.5C52.8145 2.01472 48.7851 2.01472 46.2998 4.5C43.8145 6.98528 43.8145 11.0147 46.2998 13.5Z" fill="#2AD56A"/>
<path d="M47.7998 15L56.7998 24L65.7998 15L56.7998 6L47.7998 15Z" fill="#22AA55"/>
<path fill-rule="evenodd" clip-rule="evenodd" d="M14.9281 74.848C17.7441 76.256 20.8801 76.96 24.3361 76.96C28.4961 76.96 32.2401 75.936 35.5681 73.888C38.9601 71.776 41.6161 68.928 43.5361 65.344C45.4561 61.76 46.4161 57.728 46.4161 53.248C46.4161 48.768 45.4561 44.736 43.5361 41.152C41.6161 37.568 38.9601 34.72 35.5681 32.608C32.2401 30.496 28.4961 29.44 24.3361 29.44C20.9441 29.44 17.8401 30.176 15.0241 31.648C12.6161 32.88 10.6001 34.553 8.97606 36.667V30.4H0.33606V95.104H8.97606V69.7647C10.5475 71.8717 12.5315 73.5661 14.9281 74.848ZM30.4801 66.784C28.3041 68.128 25.7761 68.8 22.8961 68.8C20.0801 68.8 17.5521 68.128 15.3121 66.784C13.1361 65.44 11.4401 63.616 10.2241 61.312C9.07206 58.944 8.49606 56.256 8.49606 53.248C8.49606 50.176 9.10406 47.456 10.3201 45.088C11.5361 42.72 13.2321 40.896 15.4081 39.616C17.5841 38.272 20.1121 37.6 22.9921 37.6C25.8081 37.6 28.3041 38.272 30.4801 39.616C32.6561 40.896 34.3841 42.72 35.6641 45.088C36.9441 47.456 37.5841 50.144 37.5841 53.152C37.5841 56.224 36.9441 58.944 35.6641 61.312C34.3841 63.616 32.6561 65.44 30.4801 66.784Z" fill="#22AA55"/>
<path d="M52.4671 30.4V76H61.1071V38.2721L77.0078 38.272V76H85.6478V38.272H96.8798V30.4H85.6478V11.296H77.0078V30.4H52.4671Z" fill="#22AA55"/>
<path d="M108.737 73.792C112.385 75.904 116.449 76.96 120.929 76.96C124.449 76.96 127.713 76.288 130.721 74.944C133.793 73.6 136.385 71.712 138.497 69.28L132.833 63.52C131.361 65.184 129.601 66.464 127.553 67.36C125.569 68.192 123.361 68.608 120.929 68.608C118.049 68.608 115.489 67.936 113.249 66.592C111.009 65.248 109.249 63.424 107.969 61.12C106.689 58.816 106.049 56.16 106.049 53.152C106.049 50.144 106.689 47.488 107.969 45.184C109.249 42.88 111.009 41.088 113.249 39.808C115.489 38.464 118.049 37.792 120.929 37.792C123.361 37.792 125.569 38.24 127.553 39.136C129.601 39.968 131.329 41.216 132.737 42.88L138.497 37.12C136.321 34.624 133.729 32.736 130.721 31.456C127.713 30.112 124.449 29.44 120.929 29.44C116.449 29.44 112.385 30.496 108.737 32.608C105.153 34.656 102.305 37.472 100.193 41.056C98.1453 44.64 97.1213 48.672 97.1213 53.152C97.1213 57.568 98.1453 61.6 100.193 65.248C102.305 68.832 105.153 71.68 108.737 73.792Z" fill="#22AA55"/>
<path d="M175.482 49.408V76H184.122V47.68C184.122 44.096 183.354 40.928 181.818 38.176C180.282 35.424 178.17 33.28 175.482 31.744C172.858 30.208 169.818 29.44 166.362 29.44C162.906 29.44 159.802 30.24 157.05 31.84C154.977 32.997 153.249 34.4809 151.866 36.2915V7.45599H143.226V76H151.866V49.408C151.866 47.104 152.378 45.056 153.402 43.264C154.426 41.472 155.834 40.064 157.626 39.04C159.418 38.016 161.466 37.504 163.77 37.504C167.226 37.504 170.042 38.624 172.218 40.864C174.394 43.104 175.482 45.952 175.482 49.408Z" fill="#22AA55"/>
</svg>
